<mxfile host="app.diagrams.net" modified="2020-12-13T10:13:26.445Z" agent="5.0 (Windows NT 10.0; Win64; x64) AppleWebKit/537.36 (KHTML, like Gecko) Chrome/87.0.4280.88 Safari/537.36" etag="uw_ro1hkZR2TcWhyLKQ1" version="13.10.9" type="github">
  <diagram id="R2lEEEUBdFMjLlhIrx00" name="Page-1">
    <mxGraphModel dx="868" dy="1550" grid="1" gridSize="10" guides="1" tooltips="1" connect="1" arrows="1" fold="1" page="1" pageScale="1" pageWidth="850" pageHeight="1100" math="0" shadow="0" extFonts="Permanent Marker^https://fonts.googleapis.com/css?family=Permanent+Marker">
      <root>
        <mxCell id="0" />
        <mxCell id="1" parent="0" />
        <mxCell id="wv9HqOi9szLo1IIF1QLG-2" style="edgeStyle=orthogonalEdgeStyle;rounded=0;orthogonalLoop=1;jettySize=auto;html=1;exitX=0.5;exitY=1;exitDx=0;exitDy=0;endArrow=ERmany;endFill=0;" edge="1" parent="1" source="C-vyLk0tnHw3VtMMgP7b-23">
          <mxGeometry relative="1" as="geometry">
            <mxPoint x="365" y="190" as="targetPoint" />
          </mxGeometry>
        </mxCell>
        <mxCell id="C-vyLk0tnHw3VtMMgP7b-23" value="Universities" style="shape=table;startSize=30;container=1;collapsible=1;childLayout=tableLayout;fixedRows=1;rowLines=0;fontStyle=1;align=center;resizeLast=1;" parent="1" vertex="1">
          <mxGeometry x="240" y="-20" width="250" height="100" as="geometry">
            <mxRectangle x="240" y="-20" width="90" height="30" as="alternateBounds" />
          </mxGeometry>
        </mxCell>
        <mxCell id="C-vyLk0tnHw3VtMMgP7b-24" value="" style="shape=partialRectangle;collapsible=0;dropTarget=0;pointerEvents=0;fillColor=none;points=[[0,0.5],[1,0.5]];portConstraint=eastwest;top=0;left=0;right=0;bottom=1;" parent="C-vyLk0tnHw3VtMMgP7b-23" vertex="1">
          <mxGeometry y="30" width="250" height="30" as="geometry" />
        </mxCell>
        <mxCell id="C-vyLk0tnHw3VtMMgP7b-25" value="PK" style="shape=partialRectangle;overflow=hidden;connectable=0;fillColor=none;top=0;left=0;bottom=0;right=0;fontStyle=1;" parent="C-vyLk0tnHw3VtMMgP7b-24" vertex="1">
          <mxGeometry width="30" height="30" as="geometry" />
        </mxCell>
        <mxCell id="C-vyLk0tnHw3VtMMgP7b-26" value="university_id" style="shape=partialRectangle;overflow=hidden;connectable=0;fillColor=none;top=0;left=0;bottom=0;right=0;align=left;spacingLeft=6;fontStyle=5;" parent="C-vyLk0tnHw3VtMMgP7b-24" vertex="1">
          <mxGeometry x="30" width="220" height="30" as="geometry" />
        </mxCell>
        <mxCell id="C-vyLk0tnHw3VtMMgP7b-27" value="" style="shape=partialRectangle;collapsible=0;dropTarget=0;pointerEvents=0;fillColor=none;points=[[0,0.5],[1,0.5]];portConstraint=eastwest;top=0;left=0;right=0;bottom=0;" parent="C-vyLk0tnHw3VtMMgP7b-23" vertex="1">
          <mxGeometry y="60" width="250" height="30" as="geometry" />
        </mxCell>
        <mxCell id="C-vyLk0tnHw3VtMMgP7b-28" value="" style="shape=partialRectangle;overflow=hidden;connectable=0;fillColor=none;top=0;left=0;bottom=0;right=0;" parent="C-vyLk0tnHw3VtMMgP7b-27" vertex="1">
          <mxGeometry width="30" height="30" as="geometry" />
        </mxCell>
        <mxCell id="C-vyLk0tnHw3VtMMgP7b-29" value="university_name" style="shape=partialRectangle;overflow=hidden;connectable=0;fillColor=none;top=0;left=0;bottom=0;right=0;align=left;spacingLeft=6;" parent="C-vyLk0tnHw3VtMMgP7b-27" vertex="1">
          <mxGeometry x="30" width="220" height="30" as="geometry" />
        </mxCell>
        <mxCell id="wv9HqOi9szLo1IIF1QLG-53" style="edgeStyle=orthogonalEdgeStyle;rounded=0;orthogonalLoop=1;jettySize=auto;html=1;exitX=0.5;exitY=1;exitDx=0;exitDy=0;entryX=0.5;entryY=0;entryDx=0;entryDy=0;endArrow=ERmany;endFill=0;" edge="1" parent="1" source="wv9HqOi9szLo1IIF1QLG-39" target="wv9HqOi9szLo1IIF1QLG-62">
          <mxGeometry relative="1" as="geometry">
            <mxPoint x="365" y="430" as="targetPoint" />
          </mxGeometry>
        </mxCell>
        <mxCell id="wv9HqOi9szLo1IIF1QLG-39" value="Departments" style="shape=table;startSize=25;container=1;collapsible=1;childLayout=tableLayout;fixedRows=1;rowLines=0;fontStyle=1;align=center;resizeLast=1;" vertex="1" parent="1">
          <mxGeometry x="240" y="190" width="250" height="175" as="geometry">
            <mxRectangle x="240" y="-20" width="90" height="30" as="alternateBounds" />
          </mxGeometry>
        </mxCell>
        <mxCell id="wv9HqOi9szLo1IIF1QLG-40" value="" style="shape=partialRectangle;collapsible=0;dropTarget=0;pointerEvents=0;fillColor=none;points=[[0,0.5],[1,0.5]];portConstraint=eastwest;top=0;left=0;right=0;bottom=1;" vertex="1" parent="wv9HqOi9szLo1IIF1QLG-39">
          <mxGeometry y="25" width="250" height="30" as="geometry" />
        </mxCell>
        <mxCell id="wv9HqOi9szLo1IIF1QLG-41" value="PK" style="shape=partialRectangle;overflow=hidden;connectable=0;fillColor=none;top=0;left=0;bottom=0;right=0;fontStyle=1;" vertex="1" parent="wv9HqOi9szLo1IIF1QLG-40">
          <mxGeometry width="40" height="30" as="geometry" />
        </mxCell>
        <mxCell id="wv9HqOi9szLo1IIF1QLG-42" value="department_id" style="shape=partialRectangle;overflow=hidden;connectable=0;fillColor=none;top=0;left=0;bottom=0;right=0;align=left;spacingLeft=6;fontStyle=5;" vertex="1" parent="wv9HqOi9szLo1IIF1QLG-40">
          <mxGeometry x="40" width="210" height="30" as="geometry" />
        </mxCell>
        <mxCell id="wv9HqOi9szLo1IIF1QLG-43" value="" style="shape=partialRectangle;collapsible=0;dropTarget=0;pointerEvents=0;fillColor=none;points=[[0,0.5],[1,0.5]];portConstraint=eastwest;top=0;left=0;right=0;bottom=0;" vertex="1" parent="wv9HqOi9szLo1IIF1QLG-39">
          <mxGeometry y="55" width="250" height="105" as="geometry" />
        </mxCell>
        <mxCell id="wv9HqOi9szLo1IIF1QLG-44" value="" style="shape=partialRectangle;overflow=hidden;connectable=0;fillColor=none;top=0;left=0;bottom=0;right=0;verticalAlign=bottom;" vertex="1" parent="wv9HqOi9szLo1IIF1QLG-43">
          <mxGeometry width="40" height="105" as="geometry" />
        </mxCell>
        <mxCell id="wv9HqOi9szLo1IIF1QLG-45" value="department_name" style="shape=partialRectangle;overflow=hidden;connectable=0;fillColor=none;top=0;left=0;bottom=0;right=0;align=left;spacingLeft=6;" vertex="1" parent="wv9HqOi9szLo1IIF1QLG-43">
          <mxGeometry x="40" width="210" height="105" as="geometry" />
        </mxCell>
        <mxCell id="wv9HqOi9szLo1IIF1QLG-55" value="" style="shape=partialRectangle;overflow=hidden;connectable=0;fillColor=none;top=0;left=0;bottom=0;right=0;" vertex="1" parent="1">
          <mxGeometry x="250" y="255" width="30" height="30" as="geometry" />
        </mxCell>
        <mxCell id="wv9HqOi9szLo1IIF1QLG-56" value="&lt;b&gt;FK&lt;/b&gt;" style="text;html=1;align=center;verticalAlign=middle;resizable=0;points=[];autosize=1;" vertex="1" parent="1">
          <mxGeometry x="245" y="330" width="30" height="20" as="geometry" />
        </mxCell>
        <mxCell id="wv9HqOi9szLo1IIF1QLG-57" value="" style="endArrow=none;html=1;rounded=0;" edge="1" parent="1">
          <mxGeometry relative="1" as="geometry">
            <mxPoint x="240" y="320" as="sourcePoint" />
            <mxPoint x="400" y="320" as="targetPoint" />
          </mxGeometry>
        </mxCell>
        <mxCell id="wv9HqOi9szLo1IIF1QLG-58" value="" style="resizable=0;html=1;align=right;verticalAlign=bottom;" connectable="0" vertex="1" parent="wv9HqOi9szLo1IIF1QLG-57">
          <mxGeometry x="1" relative="1" as="geometry" />
        </mxCell>
        <mxCell id="wv9HqOi9szLo1IIF1QLG-59" value="" style="endArrow=none;html=1;rounded=0;" edge="1" parent="1">
          <mxGeometry relative="1" as="geometry">
            <mxPoint x="330" y="320" as="sourcePoint" />
            <mxPoint x="490" y="320" as="targetPoint" />
          </mxGeometry>
        </mxCell>
        <mxCell id="wv9HqOi9szLo1IIF1QLG-60" value="" style="resizable=0;html=1;align=right;verticalAlign=bottom;" connectable="0" vertex="1" parent="wv9HqOi9szLo1IIF1QLG-59">
          <mxGeometry x="1" relative="1" as="geometry" />
        </mxCell>
        <mxCell id="wv9HqOi9szLo1IIF1QLG-61" value="university_id" style="text;html=1;align=center;verticalAlign=middle;resizable=0;points=[];autosize=1;" vertex="1" parent="1">
          <mxGeometry x="280" y="330" width="80" height="20" as="geometry" />
        </mxCell>
        <mxCell id="wv9HqOi9szLo1IIF1QLG-82" style="edgeStyle=orthogonalEdgeStyle;rounded=0;orthogonalLoop=1;jettySize=auto;html=1;exitX=0.5;exitY=1;exitDx=0;exitDy=0;entryX=0.5;entryY=0;entryDx=0;entryDy=0;endArrow=ERmany;endFill=0;" edge="1" parent="1" source="wv9HqOi9szLo1IIF1QLG-62" target="wv9HqOi9szLo1IIF1QLG-75">
          <mxGeometry relative="1" as="geometry" />
        </mxCell>
        <mxCell id="wv9HqOi9szLo1IIF1QLG-62" value="Post Graduate Programmes" style="shape=table;startSize=25;container=1;collapsible=1;childLayout=tableLayout;fixedRows=1;rowLines=0;fontStyle=1;align=center;resizeLast=1;" vertex="1" parent="1">
          <mxGeometry x="240" y="440" width="250" height="175" as="geometry">
            <mxRectangle x="240" y="-20" width="90" height="30" as="alternateBounds" />
          </mxGeometry>
        </mxCell>
        <mxCell id="wv9HqOi9szLo1IIF1QLG-63" value="" style="shape=partialRectangle;collapsible=0;dropTarget=0;pointerEvents=0;fillColor=none;points=[[0,0.5],[1,0.5]];portConstraint=eastwest;top=0;left=0;right=0;bottom=1;" vertex="1" parent="wv9HqOi9szLo1IIF1QLG-62">
          <mxGeometry y="25" width="250" height="30" as="geometry" />
        </mxCell>
        <mxCell id="wv9HqOi9szLo1IIF1QLG-64" value="PK" style="shape=partialRectangle;overflow=hidden;connectable=0;fillColor=none;top=0;left=0;bottom=0;right=0;fontStyle=1;" vertex="1" parent="wv9HqOi9szLo1IIF1QLG-63">
          <mxGeometry width="40" height="30" as="geometry" />
        </mxCell>
        <mxCell id="wv9HqOi9szLo1IIF1QLG-65" value="programme_id" style="shape=partialRectangle;overflow=hidden;connectable=0;fillColor=none;top=0;left=0;bottom=0;right=0;align=left;spacingLeft=6;fontStyle=5;" vertex="1" parent="wv9HqOi9szLo1IIF1QLG-63">
          <mxGeometry x="40" width="210" height="30" as="geometry" />
        </mxCell>
        <mxCell id="wv9HqOi9szLo1IIF1QLG-66" value="" style="shape=partialRectangle;collapsible=0;dropTarget=0;pointerEvents=0;fillColor=none;points=[[0,0.5],[1,0.5]];portConstraint=eastwest;top=0;left=0;right=0;bottom=0;" vertex="1" parent="wv9HqOi9szLo1IIF1QLG-62">
          <mxGeometry y="55" width="250" height="105" as="geometry" />
        </mxCell>
        <mxCell id="wv9HqOi9szLo1IIF1QLG-67" value="" style="shape=partialRectangle;overflow=hidden;connectable=0;fillColor=none;top=0;left=0;bottom=0;right=0;verticalAlign=bottom;" vertex="1" parent="wv9HqOi9szLo1IIF1QLG-66">
          <mxGeometry width="40" height="105" as="geometry" />
        </mxCell>
        <mxCell id="wv9HqOi9szLo1IIF1QLG-68" value="programme_name" style="shape=partialRectangle;overflow=hidden;connectable=0;fillColor=none;top=0;left=0;bottom=0;right=0;align=left;spacingLeft=6;" vertex="1" parent="wv9HqOi9szLo1IIF1QLG-66">
          <mxGeometry x="40" width="210" height="105" as="geometry" />
        </mxCell>
        <mxCell id="wv9HqOi9szLo1IIF1QLG-69" value="&lt;b&gt;FK&lt;/b&gt;" style="text;html=1;align=center;verticalAlign=middle;resizable=0;points=[];autosize=1;" vertex="1" parent="1">
          <mxGeometry x="245" y="580" width="30" height="20" as="geometry" />
        </mxCell>
        <mxCell id="wv9HqOi9szLo1IIF1QLG-70" value="&lt;span style=&quot;text-align: left&quot;&gt;programme&lt;/span&gt;_id" style="text;html=1;align=center;verticalAlign=middle;resizable=0;points=[];autosize=1;" vertex="1" parent="1">
          <mxGeometry x="280" y="580" width="90" height="20" as="geometry" />
        </mxCell>
        <mxCell id="wv9HqOi9szLo1IIF1QLG-71" value="" style="endArrow=none;html=1;rounded=0;" edge="1" parent="1">
          <mxGeometry relative="1" as="geometry">
            <mxPoint x="240" y="579" as="sourcePoint" />
            <mxPoint x="400" y="579" as="targetPoint" />
          </mxGeometry>
        </mxCell>
        <mxCell id="wv9HqOi9szLo1IIF1QLG-72" value="" style="resizable=0;html=1;align=right;verticalAlign=bottom;" connectable="0" vertex="1" parent="wv9HqOi9szLo1IIF1QLG-71">
          <mxGeometry x="1" relative="1" as="geometry" />
        </mxCell>
        <mxCell id="wv9HqOi9szLo1IIF1QLG-73" value="" style="endArrow=none;html=1;rounded=0;" edge="1" parent="1">
          <mxGeometry relative="1" as="geometry">
            <mxPoint x="330" y="579" as="sourcePoint" />
            <mxPoint x="490" y="579" as="targetPoint" />
          </mxGeometry>
        </mxCell>
        <mxCell id="wv9HqOi9szLo1IIF1QLG-74" value="" style="resizable=0;html=1;align=right;verticalAlign=bottom;" connectable="0" vertex="1" parent="wv9HqOi9szLo1IIF1QLG-73">
          <mxGeometry x="1" relative="1" as="geometry" />
        </mxCell>
        <mxCell id="wv9HqOi9szLo1IIF1QLG-75" value="Students" style="shape=table;startSize=25;container=1;collapsible=1;childLayout=tableLayout;fixedRows=1;rowLines=0;fontStyle=1;align=center;resizeLast=1;" vertex="1" parent="1">
          <mxGeometry x="240" y="770" width="250" height="245" as="geometry">
            <mxRectangle x="240" y="-20" width="90" height="30" as="alternateBounds" />
          </mxGeometry>
        </mxCell>
        <mxCell id="wv9HqOi9szLo1IIF1QLG-76" value="" style="shape=partialRectangle;collapsible=0;dropTarget=0;pointerEvents=0;fillColor=none;points=[[0,0.5],[1,0.5]];portConstraint=eastwest;top=0;left=0;right=0;bottom=1;" vertex="1" parent="wv9HqOi9szLo1IIF1QLG-75">
          <mxGeometry y="25" width="250" height="35" as="geometry" />
        </mxCell>
        <mxCell id="wv9HqOi9szLo1IIF1QLG-77" value="PK" style="shape=partialRectangle;overflow=hidden;connectable=0;fillColor=none;top=0;left=0;bottom=0;right=0;fontStyle=1;" vertex="1" parent="wv9HqOi9szLo1IIF1QLG-76">
          <mxGeometry width="40" height="35" as="geometry" />
        </mxCell>
        <mxCell id="wv9HqOi9szLo1IIF1QLG-78" value="student_id" style="shape=partialRectangle;overflow=hidden;connectable=0;fillColor=none;top=0;left=0;bottom=0;right=0;align=left;spacingLeft=6;fontStyle=5;" vertex="1" parent="wv9HqOi9szLo1IIF1QLG-76">
          <mxGeometry x="40" width="210" height="35" as="geometry" />
        </mxCell>
        <mxCell id="wv9HqOi9szLo1IIF1QLG-79" value="" style="shape=partialRectangle;collapsible=0;dropTarget=0;pointerEvents=0;fillColor=none;points=[[0,0.5],[1,0.5]];portConstraint=eastwest;top=0;left=0;right=0;bottom=0;" vertex="1" parent="wv9HqOi9szLo1IIF1QLG-75">
          <mxGeometry y="60" width="250" height="170" as="geometry" />
        </mxCell>
        <mxCell id="wv9HqOi9szLo1IIF1QLG-80" value="" style="shape=partialRectangle;overflow=hidden;connectable=0;fillColor=none;top=0;left=0;bottom=0;right=0;verticalAlign=bottom;" vertex="1" parent="wv9HqOi9szLo1IIF1QLG-79">
          <mxGeometry width="40" height="170" as="geometry" />
        </mxCell>
        <mxCell id="wv9HqOi9szLo1IIF1QLG-81" value="first_name&#xa;&#xa;last_name&#xa;&#xa;username&#xa;&#xa;password" style="shape=partialRectangle;overflow=hidden;connectable=0;fillColor=none;top=0;left=0;bottom=0;right=0;align=left;spacingLeft=6;" vertex="1" parent="wv9HqOi9szLo1IIF1QLG-79">
          <mxGeometry x="40" width="210" height="170" as="geometry" />
        </mxCell>
        <mxCell id="wv9HqOi9szLo1IIF1QLG-83" value="&lt;b&gt;FK&lt;/b&gt;" style="text;html=1;align=center;verticalAlign=middle;resizable=0;points=[];autosize=1;" vertex="1" parent="1">
          <mxGeometry x="245" y="990" width="30" height="20" as="geometry" />
        </mxCell>
        <mxCell id="wv9HqOi9szLo1IIF1QLG-84" value="" style="endArrow=none;html=1;rounded=0;" edge="1" parent="1">
          <mxGeometry relative="1" as="geometry">
            <mxPoint x="240" y="990" as="sourcePoint" />
            <mxPoint x="400" y="990" as="targetPoint" />
          </mxGeometry>
        </mxCell>
        <mxCell id="wv9HqOi9szLo1IIF1QLG-85" value="" style="resizable=0;html=1;align=right;verticalAlign=bottom;" connectable="0" vertex="1" parent="wv9HqOi9szLo1IIF1QLG-84">
          <mxGeometry x="1" relative="1" as="geometry" />
        </mxCell>
        <mxCell id="wv9HqOi9szLo1IIF1QLG-86" value="" style="endArrow=none;html=1;rounded=0;" edge="1" parent="1">
          <mxGeometry relative="1" as="geometry">
            <mxPoint x="330" y="990" as="sourcePoint" />
            <mxPoint x="490" y="990" as="targetPoint" />
          </mxGeometry>
        </mxCell>
        <mxCell id="wv9HqOi9szLo1IIF1QLG-87" value="" style="resizable=0;html=1;align=right;verticalAlign=bottom;" connectable="0" vertex="1" parent="wv9HqOi9szLo1IIF1QLG-86">
          <mxGeometry x="1" relative="1" as="geometry" />
        </mxCell>
        <mxCell id="wv9HqOi9szLo1IIF1QLG-88" value="&lt;b&gt;programme_id&lt;/b&gt;" style="text;html=1;align=center;verticalAlign=middle;resizable=0;points=[];autosize=1;" vertex="1" parent="1">
          <mxGeometry x="280" y="990" width="100" height="20" as="geometry" />
        </mxCell>
      </root>
    </mxGraphModel>
  </diagram>
</mxfile>
